<?xml version="1.0" encoding="UTF-8"?>
<svg viewBox="0 0 344.5462 404" xmlns="http://www.w3.org/2000/svg">
 <defs>
  <filter id="h" x="-.01827" y="-1.2187" width="1.0365" height="3.4373">
   <feGaussianBlur stdDeviation="1.52333"/>
  </filter>
  <filter id="g" x="-.01843" y="-.77531" width="1.0369" height="2.5506">
   <feGaussianBlur stdDeviation=".64609"/>
  </filter>
  <linearGradient id="b" x1="426" x2="206" y1="407.44" y2="3.4435" gradientTransform="matrix(.72689 0 0 1 15.664 2)" gradientUnits="userSpaceOnUse">
   <stop stop-color="#2e3436" offset="0"/>
   <stop stop-color="#555753" offset="1"/>
  </linearGradient>
  <linearGradient id="a" x2="0" y1="-38.556" y2="104.91" gradientUnits="userSpaceOnUse">
   <stop stop-color="#fdffff" offset="0"/>
   <stop stop-color="#545454" stop-opacity="0" offset="1"/>
  </linearGradient>
  <linearGradient id="f" x1="-221" x2="-78" y1="123.44" y2="168.79" gradientUnits="userSpaceOnUse">
   <stop stop-color="#e7e6e4" offset="0"/>
   <stop stop-color="#bfb9b6" offset="1"/>
  </linearGradient>
  <linearGradient id="e" x2="0" y1="167.07" y2="291.93" gradientUnits="userSpaceOnUse">
   <stop stop-color="#e2dedc" offset="0"/>
   <stop stop-color="#645952" offset=".28463"/>
   <stop stop-color="#8f847c" offset="1"/>
  </linearGradient>
  <linearGradient id="d" x2="0" y1="247.44" y2="355.54" gradientUnits="userSpaceOnUse">
   <stop stop-color="#d8e8c2" offset="0"/>
   <stop stop-color="#77b753" offset="1"/>
  </linearGradient>
  <linearGradient id="c" x2="0" y1="254.04" y2="329.85" gradientUnits="userSpaceOnUse">
   <stop stop-color="#00892c" offset="0"/>
   <stop stop-color="#006e29" offset="1"/>
  </linearGradient>
 </defs>
 <g transform="translate(-69.454 -5.4435)">
  <path d="m113.45 5.4435h256.55a44 44 0 0 1 44 44v316a44 44 0 0 1 -44 44h-256.55a44 44 0 0 1 -44 -44v-316a44 44 0 0 1 44 -44" fill="url(#b)"/>
  <path d="m99.983 5.4435c-17.719 0-31.983 19.624-31.983 44v154.94h344.55v-154.94c0-24.376-14.265-44-31.983-44h-280.58z" fill="url(#a)" opacity=".17551"/>
  <g transform="translate(391.79 -60)">
   <path d="m-253.93 168.79h206.48l-20-49.713h-166.48l-20 49.713z" fill="url(#f)"/>
   <path d="m-253.93 167.07h206.48l-20 249.71h-166.48l-20-249.71z" fill="url(#e)"/>
   <path d="m-192 145.94h82c3.601 0 6.5-0.899 6.5-4.5s-2.899-8.5-6.5-8.5h-82c-3.601 0-6.5 4.899-6.5 8.5s2.899 4.5 6.5 4.5z" fill="#382509"/>
   <path d="m-191.99 132.6c-3.601 0-6.5 4.899-6.5 8.5 0 1.9344 0.82372 3.0643 2.1562 3.7188-0.254-0.53269-0.40625-1.1655-0.40625-1.9375 0-3.4587 2.7913-6.1562 6.25-6.1562h78.75c3.4587 0 6.25 2.6975 6.25 6.1562 0 0.8338-0.17467 1.5061-0.46875 2.0625 1.4938-0.62766 2.4688-1.7776 2.4688-3.8438 0-3.601-2.899-8.5-6.5-8.5h-82z" fill="#7b726c"/>
   <g transform="translate(-2.1934)">
    <path d="m-169.53 247.44h42.072c10.78 0 19.459 8.6788 19.459 19.459l-4 50.082c0 10.78-6.6788 19.459-17.459 19.459h-36.072c-10.78 0-19.459-8.6788-19.459-19.459l-4-50.082c0-10.78 8.6788-19.459 19.459-19.459z" fill="url(#d)"/>
    <path d="m-166.41 254.04h35.838c9.1831 0 16.576 7.3929 16.576 16.576l-3.4073 42.661c0 9.1831-5.6892 16.576-14.872 16.576h-30.727c-9.1831 0-16.576-7.3929-16.576-16.576l-3.4073-42.661c0-9.1831 7.3929-16.576 16.576-16.576z" fill="url(#c)"/>
    <path d="m-140.82957,266.94145c-2.42571,0-4.40394,1.95147-4.40394,4.34794s1.97823,4.34795 4.40394,4.34795 4.38526-1.95147 4.38526-4.34795-1.95957-4.34794-4.38526-4.34794zm-19.18322,9.40499 15.26446,4.6092c.26193.56128 2.12646,4.22585 2.46322,8.15474l11.96152-.59715c-.25629-1.82641-3.64606-9.75418-5.67286-12.09214l-24.01634-.0747zm7.37098,4.85179-.22393.0373c-.54512.23034-.69171.5879-1.19428.87706s-1.379.58054-3.22831.57848v.0186c-.897-.24504-1.82631-.54238-2.76178-.91438-.1699-.0676-.42443.003-.5225.0933s-.11832.15907-.14929.22393c-.0619.12973-.11415.25048-.16794.41054-.1076.32011-.24676.75351-.50385,1.25026-.51416.99353-1.46136,2.24221-3.43357,3.22831a.45019,.45019 0 0,0 -.14928.69045c.75508.97658 1.64709,1.52272 2.57518,1.77277s1.87722.2029 2.79911.0933c1.83605-.21829 3.57671-.67561 4.85178-.22393h.0186c.01.007.009.0308.0186.0373 .0606.0392.10566.0563.22393.0746 .0591.009.14897.0525.33589-.0746l.0746-.056 .0746-.0747c.00034-.00057.056-.20453.056-.20526s.003-.0482 0-.0746-.013-.0535-.0186-.0746c-.0113-.0421-.0234-.0677-.0373-.0933-.10616-.19651-.14881-.19608-.20527-.22393 .0006.009-.001.0578.0186-.0746 .0628-.40766.82698-1.81248 4.2733-4.44125a.45019,.45019 0 0,0 -.3732-.78374c-.28067.0614-.59161.0985-.91438.13062-.29536-.25633-.55565-.66963-.72777-1.06366-.0978-.22383-.17111-.42252-.22392-.57849-.0264-.078-.054-.14856-.0746-.20527-.0103-.0284-.0159-.0501-.0373-.0933-.0107-.0217-.0277-.0377-.0747-.0933-.0117-.0139-.016-.0372-.0373-.056s-.0928-.0558-.0933-.056l-.16794-.056zm-.26125,1.15696c.0432.11685.0704.21668.13063.35456 .10296.23571.22798.49839.39187.74643-.68058-.004-1.39979-.0564-2.1833-.16795 .3871-.11025.69851-.2462.9517-.39187 .43494-.25025.53526-.37835.7091-.54117zm-7.09107.39188c3.14997,1.20181 6.09943,1.70455 8.43464,1.54884-2.34146,1.94386-3.3962,3.24166-3.52687,4.04938-1.49976-.28308-3.1124.13706-4.62786.31723-.86972.1034-1.68738.12935-2.44455-.0746-.63215-.17032-1.21864-.55074-1.77277-1.13831 1.75497-1.023 2.81482-2.23165 3.34026-3.24697 .29117-.5626.45185-1.0596.55983-1.38088 .0133-.0396.0255-.0404.0373-.0747zm17.61571,7.18437-4.08669,26.27429 9.38634-17.27982 4.14268,17.35447 2.50053-25.97572-11.94286-.37322zm-24.78143,1.45554c-.61672,0-1.11964.50292-1.11964,1.11964 0,.44781.27364.8307.65313,1.00768l4.10536,22.24358a.67528,.67528 0 0,0 .65312.55982h11.00982a.67528,.67528 0 0,0 .67179-.6158l2.1833-22.09429h.0373c.61672,0 1.11964-.48426 1.11964-1.10099s-.50292-1.11964-1.11964-1.11964h-18.1942zm.91438,2.22063h2.87375l.24259,1.95937h-2.74313l-.37321-1.95937zm4.0867,0h3.34026l.0746,1.95937h-3.17231l-.24259-1.95937zm4.55321,0h3.24697l-.0747,1.95937h-3.09768l-.0746-1.95937zm4.44125,0h2.79911l-.18661,1.95937h-2.68714l.0746-1.95937zm-12.48401,3.17232h2.66847l.35456,2.91107h-2.50053l-.5225-2.91107zm3.88142,0h3.06036l.0933,2.91107h-2.7991l-.35456-2.91107zm4.2733,0h3.02304l-.11196,2.91107h-2.81777l-.0933-2.91107zm4.21733,0h2.6125l-.29858,2.91107h-2.42589l.11197-2.91107zm-11.62563,4.10536h2.42589l.31724,2.53785h-2.27661l-.46652-2.53785zm3.63884,0h2.68714l.0746,2.53785h-2.44455l-.31723-2.53785zm3.90009,0h2.72446l-.0933,2.53785h-2.55652l-.0746-2.53785zm3.91875,0h2.36991l-.26125,2.53785h-2.20196l.0933-2.53785zm-10.76723,3.7508h2.20196l.31723,2.53786h-2.05268l-.46651-2.53786zm3.41491,0h2.33258l.0746,2.55652c-.58716-.003-1.39792-.0164-2.09-.0186l-.31723-2.53786zm3.54553,0h2.46322l-.0933,2.57518-2.29526-.0186-.0747-2.55653zm3.65751,0h2.14598l-.26125,2.64983-1.08232-.0374-.89572-.0186 .0933-2.59384zm-9.9275,3.73215h1.97803l.35455,2.85509h-1.81009l-.52249-2.85509zm3.19098.0186h1.97803l.0933,2.83643h-1.71678l-.35455-2.83643zm3.19098,0 2.22062.0186-.11196,2.81777h-2.01536l-.0933-2.83644zm3.41491.0373 .91437.0186c.5643.0129.73746.0246.97036.0373l-.26125,2.74312h-1.73544l.11196-2.7991zm-9.05045,3.99339h1.73545l.31723,2.53786h-1.58616l-.46652-2.53786zm2.94839,0h1.60482l.0747,2.53786h-1.36223l-.31724-2.53786zm2.81777,0h1.92206l-.0933,2.53786h-1.75412l-.0746-2.53786zm3.11634,0h1.66081l-.24259,2.53786h-1.51152l.0933-2.53786z" fill="#d8e8c2"/>
   </g>
   <path d="m-248.47 165.44h197.11a1.5 1.5 0 0 1 1.5 1.5 1.5 1.5 0 0 1 -1.5 1.5h-197.11a1.5 1.5 0 0 1 -1.5 -1.5 1.5 1.5 0 0 1 1.5 -1.5" fill="#e7e6e4" filter="url(#h)"/>
   <path d="m-192.75 131.79h82.146a1 1 0 0 1 1 1 1 1 0 0 1 -1 1h-82.146a1 1 0 0 1 -1 -1 1 1 0 0 1 1 -1" fill="#e7e6e4" filter="url(#g)"/>
  </g>
 </g>
</svg>
